<svg width="36" height="29" viewBox="0 0 36 29" fill="none" xmlns="http://www.w3.org/2000/svg">
<g clip-path="url(#clip0_115_2373)">
<path d="M0.0204246 8.76904L14.854 19.0067C15.7786 19.6815 16.8814 20.0436 18.0118 20.0436C19.1421 20.0436 20.2449 19.6815 21.1695 19.0067L36.0029 8.76904V25.867C35.9108 26.468 35.6737 27.0351 35.3135 27.5154C34.9534 27.9958 34.482 28.3738 33.9432 28.6143L32.9813 28.8925H2.96822C2.23585 28.7797 1.55645 28.43 1.02666 27.8934C0.496884 27.3567 0.143851 26.6603 0.0175781 25.9033L0.0204246 8.76904Z" fill="#111163"/>
<path d="M0.0200187 4.83218C-0.00667289 4.51691 -0.00667289 4.19987 0.0200187 3.88459C0.149967 3.09799 0.527328 2.37814 1.09315 1.83755C1.65897 1.29696 2.38139 0.966089 3.14762 0.896484H32.8049C33.5134 0.920846 34.1955 1.18189 34.7495 1.64077C35.3036 2.09966 35.7002 2.7318 35.8801 3.44329C36.06 4.15477 36.0137 4.9075 35.7482 5.58952C35.4826 6.27153 35.012 6.84644 34.4063 7.2286C29.5716 10.2913 24.9631 14.1283 20.1118 17.1154C18.7254 17.9693 17.7345 18.19 16.2586 17.3341L0.90718 6.64786C0.462999 6.13394 0.156969 5.50771 0.0200187 4.83218Z" fill="#111163"/>
</g>
<defs>
<clipPath id="clip0_115_2373">
<rect width="36" height="28" fill="white" transform="translate(0 0.892578)"/>
</clipPath>
</defs>
</svg>
