<svg width="31" height="31" viewBox="0 0 31 31" fill="none" xmlns="http://www.w3.org/2000/svg">
<g clip-path="url(#clip0_115_2375)">
<path d="M16.0939 0.906006L18.3869 1.22791C21.8722 1.96436 24.9831 3.91381 27.1657 6.72913C29.3483 9.54444 30.4609 13.0429 30.3056 16.6018C30.1503 20.1607 28.7371 23.549 26.3176 26.1635C23.898 28.7779 20.6292 30.4489 17.093 30.8789V19.1549L17.1811 19.0659H20.735L21.2641 14.8939H17.093V11.75C17.1305 11.5289 17.1892 11.3119 17.268 11.1019C17.595 10.2729 18.5111 10.1799 19.2961 10.1339C19.9831 10.0929 20.696 10.1629 21.381 10.1339V6.375C19.133 6.292 16.6561 5.83197 14.7231 7.26697C12.3151 9.05497 12.7881 12.249 12.7451 14.897H9.16205V19.069H12.7451V30.7689C9.5924 30.2223 6.69432 28.6896 4.4682 26.3912C2.24209 24.0929 0.802556 21.1475 0.356874 17.979C0.340814 17.597 0.299053 17.2164 0.231874 16.84C0.255874 16.257 0.197874 15.6579 0.231874 15.0769C0.476381 11.3918 2.05422 7.9218 4.6706 5.31519C7.28697 2.70857 10.7629 1.14371 14.4489 0.912964L16.0939 0.906006Z" fill="#111163"/>
</g>
<defs>
<clipPath id="clip0_115_2375">
<rect width="30.095" height="29.973" fill="white" transform="translate(0.221008 0.906006)"/>
</clipPath>
</defs>
</svg>
