<svg width="34" height="32" viewBox="0 0 34 32" fill="none" xmlns="http://www.w3.org/2000/svg">
<g clip-path="url(#clip0_115_2374)">
<path d="M14.707 0.0607374C23.907 -0.701263 35.496 5.7608 32.831 16.3968C31.468 21.8368 22.366 28.8228 17.444 31.1838C12.916 33.3568 16.455 29.0578 15.069 27.5018C14.569 26.9438 12.051 26.6598 11.135 26.4068C-5.90404 21.6798 -2.33902 1.47074 14.707 0.0607374ZM7.60103 16.2327V10.3128C7.60103 9.68081 6.1181 9.28571 5.8481 10.1817V17.4157C5.92389 17.5963 6.04908 17.752 6.20918 17.8648C7.58541 18.0917 8.98703 18.119 10.371 17.9457C11.228 17.7107 10.793 16.2327 10.113 16.2327H7.60103ZM12.4272 9.60676C12.2236 9.65314 12.04 9.76329 11.9033 9.92121C11.7666 10.0791 11.6839 10.2766 11.6672 10.4848C11.5023 12.5894 11.4966 14.7034 11.6501 16.8088C11.7081 17.4508 11.817 17.8927 12.55 18.0087C12.7543 17.9939 12.9491 17.9168 13.1081 17.7877C13.2671 17.6585 13.3828 17.4837 13.4392 17.2868C13.2392 15.1658 13.7201 12.5228 13.4501 10.4688C13.4506 10.3415 13.423 10.2155 13.3696 10.0999C13.3161 9.98432 13.2379 9.88179 13.1406 9.79963C13.0433 9.71747 12.9293 9.65766 12.8063 9.62434C12.6834 9.59101 12.5546 9.58499 12.4291 9.60676H12.4272ZM19.6071 14.4488C18.6741 13.8188 16.4641 9.69479 15.6071 9.61579C15.3312 9.64151 15.0751 9.77039 14.8901 9.97675C14.4141 10.6388 14.909 16.2048 14.779 17.4178C14.906 18.2078 15.928 18.1418 16.362 17.6118V13.1508C17.711 14.1768 18.6471 16.6508 19.8481 17.6948C20.5941 18.3428 21.288 17.8838 21.395 16.9658C21.632 14.9368 21.246 12.4248 21.352 10.3438C21.316 9.46882 19.6071 9.63881 19.6071 10.3128V14.4488ZM24.312 11.3668H26.989C27.467 11.3668 28.0092 9.80674 26.8232 9.58674C25.5932 9.50301 24.3585 9.51307 23.1301 9.61677C22.6531 9.75377 22.558 10.2078 22.517 10.6268C22.3599 12.7926 22.3599 14.9669 22.517 17.1328C22.599 17.7568 22.9691 17.9508 23.5751 18.0208C24.6875 18.1112 25.8061 18.0853 26.913 17.9438C28.065 17.5928 27.369 16.2327 26.986 16.2327H24.309V14.6108H27.1481C27.6781 14.6108 27.6781 12.9887 27.1481 12.9887H24.309L24.312 11.3668Z" fill="#111163"/>
</g>
<defs>
<clipPath id="clip0_115_2374">
<rect width="33.221" height="31.785" fill="white"/>
</clipPath>
</defs>
</svg>
