<svg width="40" height="28" viewBox="0 0 40 28" fill="none" xmlns="http://www.w3.org/2000/svg">
<g clip-path="url(#clip0_115_2376)">
<path d="M0.31604 10.3529C0.62804 6.85291 0.416175 1.54588 4.90417 0.739877C6.68686 0.487406 8.48374 0.349184 10.2841 0.325937C15.6841 0.0619366 21.152 0.0859131 26.556 0.201913C29.4529 0.167407 32.3484 0.349313 35.2181 0.745981C36.2567 0.971303 37.2 1.51304 37.9178 2.29676C38.6357 3.08048 39.0927 4.0676 39.2262 5.12196C39.8664 9.41762 40.0213 13.7716 39.6881 18.1019C39.5751 20.3689 39.4831 23.7379 37.9181 25.4879C36.2441 27.3599 33.8181 27.2199 31.4891 27.3699C25.5961 27.7509 19.4491 27.701 13.5311 27.57C10.9231 27.514 8.13818 27.4649 5.56018 27.1569C4.3728 27.0561 3.25663 26.5486 2.40027 25.72C1.54391 24.8913 0.999938 23.7923 0.860229 22.6089C0.567601 20.9408 0.400466 19.2531 0.360229 17.5599C0.354499 17.5235 0.339744 17.4892 0.317261 17.46L0.31604 10.3529ZM14.9471 7.02393V19.971L27.441 13.4979L14.9471 7.02393Z" fill="#111163"/>
</g>
<defs>
<clipPath id="clip0_115_2376">
<rect width="39.518" height="27.5473" fill="white" transform="translate(0.31604 0.118896)"/>
</clipPath>
</defs>
</svg>
